HIERARCHY
ROOT hip
{
	OFFSET 0.000000 0.000000 0.000000
	CHANNELS 6 Xposition Yposition Zposition Xrotation Zrotation Yrotation 
	JOINT abdomen
	{
		OFFSET 0.000000 3.422050 0.000000
		CHANNELS 3 Xrotation Zrotation Yrotation 
		JOINT chest
		{
			OFFSET 0.000000 8.486693 -0.684411
			CHANNELS 3 Xrotation Zrotation Yrotation 
			JOINT neck
			{
				OFFSET 0.000000 10.266162 -0.273764
				CHANNELS 3 Xrotation Zrotation Yrotation 
				JOINT head
				{
					OFFSET 0.000000 3.148285 0.000000
					CHANNELS 3 Xrotation Zrotation Yrotation 
					End Site
					{
						OFFSET 0.000000 3.148289 0.000000
					}
				}
			}
			JOINT lCollar
			{
				OFFSET 3.422053 6.707223 -0.821293
				CHANNELS 3 Yrotation Zrotation Xrotation 
				JOINT lShldr
				{
					OFFSET 3.285171 0.000000 0.000000
					CHANNELS 3 Zrotation Yrotation Xrotation 
					JOINT lForeArm
					{
						OFFSET 10.129278 0.000000 0.000000
						CHANNELS 3 Yrotation Zrotation Xrotation 
						JOINT lHand
						{
							OFFSET 8.486692 0.000000 0.000000
							CHANNELS 3 Zrotation Yrotation Xrotation 
							End Site
							{
								OFFSET 4.106464 0.000000 0.000000
							}
						}
					}
				}
			}
			JOINT rCollar
			{
				OFFSET -3.558935 6.707223 -0.821293
				CHANNELS 3 Yrotation Zrotation Xrotation 
				JOINT rShldr
				{
					OFFSET -3.148289 0.000000 0.000000
					CHANNELS 3 Zrotation Yrotation Xrotation 
					JOINT rForeArm
					{
						OFFSET -10.266159 0.000000 0.000000
						CHANNELS 3 Yrotation Zrotation Xrotation 
						JOINT rHand
						{
							OFFSET -8.349810 0.000000 0.000000
							CHANNELS 3 Zrotation Yrotation Xrotation 
							End Site
							{
								OFFSET -4.106464 0.000000 0.000000
							}
						}
					}
				}
			}
		}
	}
	JOINT lThigh
	{
		OFFSET 5.338403 -1.642589 1.368821
		CHANNELS 3 Xrotation Zrotation Yrotation 
		JOINT lShin
		{
			OFFSET -2.053232 -20.121670 0.000000
			CHANNELS 3 Xrotation Zrotation Yrotation 
			JOINT lFoot
			{
				OFFSET 0.000000 -19.300380 -1.231939
				CHANNELS 3 Xrotation Yrotation Zrotation 
				End Site
				{
					OFFSET 0.000000 -2.463878 4.653993
				}
			}
		}
	}
	JOINT rThigh
	{
		OFFSET -5.338403 -1.642589 1.368821
		CHANNELS 3 Xrotation Zrotation Yrotation 
		JOINT rShin
		{
			OFFSET 2.053232 -20.121670 0.000000
			CHANNELS 3 Xrotation Zrotation Yrotation 
			JOINT rFoot
			{
				OFFSET 0.000000 -19.300380 -1.231939
				CHANNELS 3 Xrotation Yrotation Zrotation 
				End Site
				{
					OFFSET 0.000000 -2.463878 4.653993
				}
			}
		}
	}
}
MOTION
Frames: 16
Frame Time: 0.033264
0.000000 43.528500 0.000000 0.000000 0.000000 0.000000 0.000000 0.000000 0.000000 0.000000 0.000000 0.000000 0.000000 0.000000 0.000000 0.000000 0.000000 0.000000 0.000000 0.000000 0.000000 0.000000 0.000000 0.000000 0.000000 0.000000 0.000000 0.000000 0.000000 0.000000 0.000000 0.000000 0.000000 0.000000 0.000000 0.000000 0.000000 0.000000 0.000000 0.000000 0.000000 0.000000 0.000000 0.000000 0.000000 0.000000 0.000000 0.000000 0.000000 0.000000 0.000000 0.000000 0.000000 0.000000 0.000000 0.000000 0.000000 0.000000 0.000000 0.000000 
0.393483 15.086102 6.677302 -106.995270 0.404565 -179.689743 -24.416889 -0.245476 -0.431717 -0.327890 -0.329574 -0.903073 0.215154 0.092470 0.106832 0.159116 0.000000 0.000000 -9.091188 15.297042 1.713601 -7.578359 -32.339294 -19.404078 -53.902203 -5.100251 6.545280 59.998985 0.000000 0.000000 -1.733075 18.710192 0.397189 19.083139 45.155281 14.172879 32.448425 -17.447435 -5.150644 -60.003029 0.000000 0.000000 -53.617737 16.794029 20.836851 37.407635 -3.208615 -2.255516 56.987453 -8.086018 3.838290 -54.003826 -17.095980 -21.085432 38.247627 3.034065 2.638854 57.754318 8.065828 -4.035444 
0.393483 14.979970 6.586523 -105.129379 0.377839 -179.699707 -22.658491 -0.245531 -0.431698 -1.269405 -0.329620 -0.903077 0.359368 0.132959 0.063720 0.092867 0.000000 0.000000 -10.137245 14.495405 2.660479 -7.461920 -32.056011 -19.474560 -52.805386 -4.971827 6.648121 59.919899 -0.732672 -0.223230 -1.186953 19.199661 0.663063 18.731833 44.663086 13.900064 31.820768 -17.310961 -5.333393 -59.747379 0.500325 0.087419 -51.207214 16.265814 20.382174 36.587635 -3.235619 -2.218206 57.027195 -7.874610 3.131320 -51.667671 -16.598227 -20.570372 37.555607 3.095486 2.607949 57.727474 7.876532 -3.306018 
0.393483 14.873838 6.495744 -103.255379 0.351337 -179.710617 -20.893316 -0.245588 -0.431681 -2.211942 -0.329666 -0.903079 0.503591 0.173568 0.020699 0.026613 0.000000 0.000000 -11.168503 13.675164 3.591200 -7.346238 -31.772583 -19.544157 -51.707378 -4.841269 6.748604 59.843590 -1.466179 -0.445663 -0.641128 19.691927 0.924997 18.386621 44.169548 13.633657 31.193741 -17.172518 -5.514510 -59.490833 1.000451 0.177115 -48.777325 15.751966 19.901682 35.766914 -3.262108 -2.180480 57.069561 -7.663561 2.424080 -49.312912 -16.117004 -20.031277 36.863106 3.156567 2.576284 57.703056 7.686782 -2.576509 
0.393483 14.767707 6.404964 -101.374222 0.325107 -179.722412 -19.122183 -0.245644 -0.431666 -3.155377 -0.329711 -0.903081 0.647821 0.214295 -0.022232 -0.039648 0.000000 0.000000 -12.184764 12.836992 4.505546 -7.231300 -31.489006 -19.612879 -50.608395 -4.708645 6.846666 59.770058 -2.200441 -0.667350 -0.095587 20.186897 1.182936 18.047319 43.674702 13.373475 30.567396 -17.032139 -5.693972 -59.233383 1.500344 0.269100 -46.330051 15.254386 19.396221 34.945560 -3.288072 -2.142349 57.114567 -7.452920 1.716608 -46.941372 -15.654066 -19.469093 36.170174 3.217292 2.543863 57.681065 7.496623 -1.846963 
0.393483 14.661575 6.314185 -99.486931 0.299195 -179.735123 -17.345905 -0.245702 -0.431653 -4.099582 -0.329757 -0.903083 0.792059 0.255141 -0.065071 -0.105915 0.000000 0.000000 -13.185894 11.981603 5.403342 -7.117095 -31.205280 -19.680729 -49.508598 -4.574018 6.942244 59.699284 -2.935382 -0.888341 0.449682 20.684473 1.436822 17.713793 43.178658 13.119381 29.941767 -16.889843 -5.871743 -58.974960 1.999964 0.363385 -43.867390 14.774906 18.866779 34.123661 -3.313504 -2.103824 57.162186 -7.242740 1.008944 -44.555035 -15.211123 -18.884954 35.476856 3.277647 2.510691 57.661522 7.306105 -1.117429 
0.393483 14.555445 6.223406 -97.594467 0.273646 -179.748703 -15.565318 -0.245760 -0.431641 -5.044430 -0.329803 -0.903083 0.936303 0.296105 -0.107819 -0.172187 0.000000 0.000000 -14.171778 11.109697 6.284451 -7.003615 -30.921429 -19.747721 -48.408226 -4.437462 7.035280 59.631275 -3.670924 -1.108686 0.994693 21.184559 1.686597 17.385853 42.681416 12.871193 29.316896 -16.745661 -6.047798 -58.715584 2.499277 0.459980 -41.391598 14.315329 18.314535 33.301308 -3.338395 -2.064917 57.212418 -7.033070 0.301130 -42.156010 -14.789797 -18.280106 34.783215 3.337619 2.476776 57.644436 7.115273 -0.387954 
0.393483 14.449313 6.132627 -95.697861 0.248505 -179.763153 -13.781261 -0.245818 -0.431631 -5.989792 -0.329849 -0.903083 1.080554 0.337187 -0.150474 -0.238466 0.000000 0.000000 -15.142345 10.222009 7.148774 -6.890851 -30.637453 -19.813875 -47.307453 -4.299046 7.125719 59.566013 -4.406989 -1.328434 1.539461 21.687054 1.932207 17.063362 42.183067 12.628772 28.692823 -16.599617 -6.222108 -58.455204 2.998246 0.558898 -38.904972 13.877341 17.740797 32.478584 -3.362736 -2.025639 57.265263 -6.823962 -0.406796 -39.746521 -14.391623 -17.655958 34.089279 3.397194 2.442124 57.629795 6.924175 0.341417 
0.393483 14.343182 6.041847 -93.798126 0.223816 -179.778442 -11.994608 -0.245877 -0.431623 -6.935541 -0.329895 -0.903081 1.224812 0.378387 -0.193036 -0.304750 0.000000 0.000000 -16.097574 9.319280 7.996250 -6.778789 -30.353352 -19.879189 -46.206486 -4.158843 7.213507 59.503502 -5.143499 -1.547637 2.084008 22.191870 2.173594 16.746162 41.683662 12.391964 28.069572 -16.451733 -6.394647 -58.193787 3.496833 0.660150 -36.409966 13.462542 17.147049 31.655558 -3.386518 -1.986001 57.320675 -6.615463 -1.114791 -37.328899 -14.018021 -17.014048 33.395115 3.456359 2.406741 57.617603 6.732858 1.070635 
0.393483 14.237050 5.951068 -91.896309 0.199622 -179.794586 -10.206207 -0.245936 -0.431617 -7.881547 -0.329941 -0.903080 1.369074 0.419703 -0.235505 -0.371040 0.000000 0.000000 -17.037453 8.402252 8.826846 -6.667424 -30.069130 -19.943670 -45.105511 -4.016932 7.298594 59.443737 -5.880375 -1.766343 2.628350 22.698893 2.410702 16.434114 41.183239 12.160629 27.447199 -16.302050 -6.565388 -57.931316 3.995003 0.763751 -33.909115 13.072392 16.534897 30.832331 -3.409734 -1.946016 57.378685 -6.407626 -1.822815 -34.905567 -13.670268 -16.356024 32.700771 3.515101 2.370636 57.607864 6.541368 1.799654 
0.393483 14.130919 5.860289 -89.993454 0.175964 -179.811523 -8.416937 -0.245996 -0.431613 -8.827684 -0.329987 -0.903077 1.513342 0.461137 -0.277881 -0.437336 0.000000 0.000000 -17.962027 7.471688 9.640563 -6.556741 -29.784800 -20.007332 -44.004742 -3.873389 7.380934 59.386711 -6.617540 -1.984604 3.172513 23.208038 2.643477 16.127075 40.681870 11.934628 26.825726 -16.150578 -6.734303 -57.667744 4.492715 0.869711 -31.405037 12.708213 15.906066 30.008976 -3.432375 -1.905695 57.439247 -6.200500 -2.530829 -32.479019 -13.349506 -15.683651 32.006298 3.573406 2.333814 57.600590 6.349755 2.528430 
0.393483 14.024787 5.769509 -88.090614 0.152881 -179.829224 -6.627664 -0.246055 -0.431610 -9.773821 -0.330032 -0.903074 1.657614 0.502687 -0.320162 -0.503638 0.000000 0.000000 -18.871347 6.528345 10.437428 -6.446735 -29.500359 -20.070181 -42.904354 -3.728295 7.460480 59.332428 -7.354915 -2.202469 3.716518 23.719191 2.871860 15.824910 40.179596 11.713827 26.205206 -15.997367 -6.901372 -57.403076 4.989938 0.978044 -28.900419 12.371164 15.262400 29.185593 -3.454437 -1.865053 57.502346 -5.994132 -3.238789 -30.051819 -13.056720 -14.998788 31.311735 3.631260 2.296285 57.595760 6.158065 3.256914 
0.393483 13.918655 5.678730 -86.188828 0.130411 -179.847687 -4.839268 -0.246114 -0.431610 -10.719825 -0.330078 -0.903069 1.801890 0.544353 -0.362348 -0.569945 0.000000 0.000000 -19.765511 5.572989 11.217499 -6.337394 -29.215824 -20.132233 -41.804558 -3.581732 7.537193 59.280888 -8.092422 -2.419989 4.260393 24.232252 3.095796 15.527488 39.676483 11.498098 25.585665 -15.842436 -7.066569 -57.137257 5.486629 1.088765 -26.398018 12.062239 14.605834 28.362259 -3.475911 -1.824100 57.567978 -5.788573 -3.946653 -27.626585 -12.792711 -14.303357 30.617146 3.688653 2.258056 57.593384 5.966347 3.985059 
0.393483 13.812524 5.587951 -84.289162 0.108590 -179.866852 -3.052609 -0.246174 -0.431611 -11.665575 -0.330124 -0.903065 1.946169 0.586135 -0.404440 -0.636257 0.000000 0.000000 -20.644636 4.606384 11.980855 -6.228710 -28.931196 -20.193493 -40.705544 -3.433781 7.611034 59.232082 -8.829983 -2.637215 4.804165 24.747120 3.315229 15.234675 39.172558 11.287310 24.967133 -15.685813 -7.229869 -56.870285 5.982755 1.201886 -23.900579 11.782236 13.938361 27.539064 -3.496793 -1.782850 57.636127 -5.583871 -4.654383 -25.205921 -12.558105 -13.599335 29.922575 3.745569 2.219136 57.593475 5.774648 4.712821 
0.393484 13.706392 5.497171 -82.392609 0.087452 -179.886703 -1.268559 -0.246233 -0.431614 -12.610935 -0.330169 -0.903059 2.090452 0.628032 -0.446436 -0.702576 0.000000 0.000000 -21.508852 3.629294 12.727595 -6.120673 -28.646467 -20.253962 -39.607502 -3.284528 7.681970 59.186043 -9.567522 -2.854198 5.347866 25.263700 3.530105 14.946356 38.667889 11.081346 24.349648 -15.527532 -7.391253 -56.602097 6.478274 1.317422 -21.410873 11.531765 13.262038 26.716084 -3.517072 -1.741315 57.706760 -5.380074 -5.361932 -22.792465 -12.353350 -12.888741 29.228073 3.801999 2.179534 57.595982 5.583013 5.440150 
0.393484 13.600262 5.406392 -80.500252 0.067026 -179.907196 0.512031 -0.246292 -0.431619 -13.555784 -0.330215 -0.903053 2.234737 0.670044 -0.488336 -0.768900 0.000000 0.000000 -22.358322 2.642481 13.457842 -6.013273 -28.361664 -20.313656 -38.510628 -3.134059 7.749968 59.142746 -10.304961 -3.070991 5.891527 25.781878 3.740366 14.662408 38.162529 10.880088 23.733240 -15.367623 -7.550698 -56.332691 6.973154 1.435388 -18.931652 11.311244 12.578939 25.893408 -3.536747 -1.699509 57.779884 -5.177230 -6.069263 -20.388824 -12.178696 -12.173602 28.533691 3.857929 2.139258 57.600960 5.391493 6.167007 
